<svg width="24" height="25" viewBox="0 0 24 25" fill="none" xmlns="http://www.w3.org/2000/svg">
<path d="M18.3274 22.9996C17.4124 22.9996 16.1271 22.6686 14.2024 21.5933C11.862 20.2808 10.0516 19.0691 7.72383 16.7474C5.47946 14.5044 4.38727 13.0522 2.85868 10.2707C1.1318 7.13003 1.42618 5.48378 1.75524 4.78019C2.14712 3.93925 2.72555 3.43628 3.47321 2.93707C3.89787 2.65883 4.34727 2.42032 4.81571 2.22457C4.86258 2.20441 4.90618 2.18519 4.94508 2.16785C5.17712 2.06332 5.52868 1.90535 5.97399 2.0741C6.27118 2.18566 6.53649 2.41394 6.9518 2.8241C7.80352 3.6641 8.96743 5.53488 9.3968 6.45363C9.68508 7.07285 9.87587 7.4816 9.87633 7.94003C9.87633 8.47675 9.60633 8.89066 9.27868 9.33738C9.21727 9.42128 9.15633 9.50144 9.09727 9.57925C8.74055 10.048 8.66227 10.1835 8.71383 10.4253C8.81837 10.9114 9.5979 12.3585 10.879 13.6368C12.1601 14.915 13.5654 15.6453 14.0534 15.7494C14.3056 15.8033 14.4438 15.7218 14.9276 15.3524C14.997 15.2994 15.0682 15.2446 15.1427 15.1897C15.6424 14.818 16.0371 14.555 16.5612 14.555H16.564C17.0201 14.555 17.4106 14.7528 18.0574 15.0791C18.9012 15.5047 20.8282 16.6536 21.6734 17.5063C22.0845 17.9207 22.3137 18.185 22.4257 18.4818C22.5945 18.9285 22.4356 19.2786 22.332 19.513C22.3146 19.5519 22.2954 19.5946 22.2752 19.6419C22.0779 20.1095 21.838 20.558 21.5585 20.9816C21.0602 21.7269 20.5554 22.3039 19.7126 22.6963C19.2798 22.901 18.8062 23.0047 18.3274 22.9996Z" fill="#1CBCCF"/>
</svg>
