<svg width="31" height="30" viewBox="0 0 31 30" fill="none" xmlns="http://www.w3.org/2000/svg">
<path d="M15.5 2.55005C8.625 2.55005 3 8.16255 3 15.075C3 21.3251 7.575 26.5125 13.55 27.45V18.7H10.375V15.075H13.55V12.3125C13.55 9.17505 15.4125 7.45005 18.275 7.45005C19.6375 7.45005 21.0625 7.68755 21.0625 7.68755V10.775H19.4875C17.9375 10.775 17.45 11.7375 17.45 12.725V15.075H20.925L20.3625 18.7H17.45V27.45C20.3956 26.9849 23.0778 25.4819 25.0124 23.2126C26.9471 20.9433 28.0067 18.0571 28 15.075C28 8.16255 22.375 2.55005 15.5 2.55005Z" fill="#1CBCCF"/>
</svg>
