<svg width="18" height="16" viewBox="0 0 18 16" fill="none" xmlns="http://www.w3.org/2000/svg">
<path d="M8.99935 15.5C8.74935 15.5 8.50963 15.4547 8.28018 15.3642C8.05074 15.2736 7.84602 15.1383 7.66602 14.9583L2.08268 9.35417C1.59657 8.86806 1.2388 8.3125 1.00935 7.6875C0.779906 7.0625 0.665462 6.40972 0.666018 5.72917C0.666018 4.29861 1.1313 3.06944 2.06185 2.04167C2.99241 1.01389 4.15213 0.5 5.54102 0.5C6.20768 0.5 6.8363 0.631944 7.42685 0.895833C8.01741 1.15972 8.54157 1.52778 8.99935 2C9.4438 1.52778 9.9613 1.15972 10.5519 0.895833C11.1424 0.631944 11.7707 0.5 12.4369 0.5C13.8257 0.5 14.9891 1.01389 15.9268 2.04167C16.8646 3.06944 17.3332 4.29167 17.3327 5.70833C17.3327 6.38889 17.2146 7.04167 16.9785 7.66667C16.7424 8.29167 16.3882 8.84722 15.916 9.33333L10.3119 14.9583C10.1313 15.1389 9.92991 15.2744 9.70768 15.365C9.48546 15.4556 9.24935 15.5006 8.99935 15.5ZM9.83268 4.66667C9.97157 4.66667 10.1035 4.70139 10.2285 4.77083C10.3535 4.84028 10.4507 4.93056 10.5202 5.04167L11.9368 7.16667H15.3952C15.4924 6.93056 15.5652 6.69083 15.6135 6.4475C15.6618 6.20417 15.6863 5.95778 15.6868 5.70833C15.6591 4.75 15.3396 3.92694 14.7285 3.23917C14.1174 2.55139 13.3535 2.20778 12.4369 2.20833C12.0063 2.20833 11.593 2.29167 11.1969 2.45833C10.8007 2.625 10.4571 2.86806 10.166 3.1875L9.60352 3.79167C9.53407 3.875 9.44379 3.94111 9.33268 3.99C9.22157 4.03889 9.11046 4.06306 8.99935 4.0625C8.88824 4.0625 8.77713 4.03833 8.66602 3.99C8.55491 3.94167 8.45768 3.87556 8.37435 3.79167L7.81185 3.1875C7.52018 2.86806 7.17991 2.61806 6.79102 2.4375C6.40213 2.25694 5.98546 2.16667 5.54102 2.16667C4.62435 2.16667 3.86046 2.5175 3.24935 3.21917C2.63824 3.92083 2.33268 4.75056 2.33268 5.70833C2.33268 5.95833 2.35352 6.205 2.39518 6.44833C2.43685 6.69167 2.5063 6.93111 2.60352 7.16667H6.49935C6.63824 7.16667 6.77018 7.20139 6.89518 7.27083C7.02018 7.34028 7.11741 7.43056 7.18685 7.54167L7.91602 8.625L9.04102 5.25C9.09657 5.08333 9.19713 4.94444 9.34268 4.83333C9.48824 4.72222 9.65157 4.66667 9.83268 4.66667ZM10.0827 7.375L8.95768 10.75C8.90213 10.9167 8.79796 11.0556 8.64518 11.1667C8.49241 11.2778 8.32574 11.3333 8.14518 11.3333C8.0063 11.3333 7.87435 11.2986 7.74935 11.2292C7.62435 11.1597 7.52713 11.0694 7.45768 10.9583L6.04102 8.83333H3.91602L8.85352 13.7708C8.8813 13.7986 8.90574 13.8161 8.92685 13.8233C8.94796 13.8306 8.97213 13.8339 8.99935 13.8333C9.02713 13.8333 9.05157 13.8297 9.07268 13.8225C9.09379 13.8153 9.11796 13.7981 9.14518 13.7708L14.0618 8.83333H11.4994C11.3605 8.83333 11.2285 8.79861 11.1035 8.72917C10.9785 8.65972 10.8743 8.56944 10.791 8.45833L10.0827 7.375Z" fill="#1CBCCF"/>
</svg>
