<svg width="40" height="40" viewBox="0 0 40 40" fill="none" xmlns="http://www.w3.org/2000/svg">
<g clip-path="url(#clip0_152_158)">
<path d="M30.9873 0C35.9648 0 40 4.03523 40 9.0127V30.9873C40 35.9648 35.9648 40 30.9873 40H9.0127C4.03523 40 0 35.9648 0 30.9873V9.0127C0 4.03523 4.03523 0 9.0127 0H30.9873ZM20.0039 7.5C12.6415 7.50012 6.66699 12.3628 6.66699 18.3252C6.6671 23.675 11.4041 28.1624 17.8164 29C18.2537 29.1 18.8409 29.2874 18.9912 29.6621C19.1287 29.9996 19.0793 30.525 19.0293 30.875C18.9293 31.5 18.8668 31.8794 18.8418 32.0127C18.7918 32.3503 18.5792 33.3244 20.0039 32.7246C21.4289 32.1246 27.6795 28.2123 30.4795 24.9873C32.4043 22.8624 33.3417 20.7125 33.3418 18.3252C33.3418 12.3627 27.3539 7.5 20.0039 7.5ZM12.0332 15.2373C12.1706 15.2373 12.2831 15.3499 12.2832 15.4873V20.1123H14.833C14.9704 20.1123 15.0829 20.2249 15.083 20.3623V21.3125C15.083 21.45 14.9705 21.5625 14.833 21.5625H11.083C10.9457 21.5623 10.833 21.4499 10.833 21.3125V15.4873C10.8331 15.35 10.9457 15.2375 11.083 15.2373H12.0332ZM17.083 15.2373C17.221 15.2373 17.3329 15.3493 17.333 15.4873V21.3125C17.333 21.4506 17.2211 21.5625 17.083 21.5625H16.1338C15.9957 21.5625 15.8838 21.4506 15.8838 21.3125V15.4873C15.8839 15.3493 15.9958 15.2373 16.1338 15.2373H17.083ZM19.5205 15.2373C19.5205 15.2456 19.525 15.2499 19.5332 15.25H19.5459L19.5586 15.2627H19.583V15.2754C19.5912 15.2754 19.5956 15.279 19.5957 15.2871H19.6084L19.6211 15.2998C19.6294 15.3081 19.6372 15.3169 19.6455 15.3252C19.6537 15.3334 19.6581 15.3414 19.6582 15.3496L22.3213 18.9375V15.4873C22.3214 15.35 22.4457 15.2375 22.583 15.2373H23.5205C23.6704 15.2373 23.7831 15.3499 23.7832 15.4873V21.3125C23.7832 21.45 23.6705 21.5625 23.5205 21.5625H22.583C22.5582 21.5625 22.5371 21.5581 22.5205 21.5498H22.4961V21.5371H22.4707C22.463 21.5294 22.4584 21.5258 22.458 21.5254C22.45 21.5253 22.4464 21.5208 22.4463 21.5127H22.4336C22.4087 21.4961 22.3877 21.4751 22.3711 21.4502L19.708 17.8496V21.3125C19.708 21.4499 19.5961 21.5623 19.4463 21.5625H18.5088C18.3713 21.5625 18.2461 21.45 18.2461 21.3125V15.4873C18.2462 15.3499 18.3713 15.2373 18.5088 15.2373H19.5205ZM28.6963 15.2373C28.8335 15.2376 28.9462 15.35 28.9463 15.4873V16.4375C28.9463 16.5748 28.8336 16.6873 28.6963 16.6875H26.1455V17.6748H28.6963C28.8335 17.6751 28.9462 17.7875 28.9463 17.9248V18.875C28.9463 19.0123 28.8336 19.1248 28.6963 19.125H26.1455V20.1123H28.6963C28.8335 20.1126 28.9462 20.225 28.9463 20.3623V21.3125C28.9463 21.4498 28.8336 21.5623 28.6963 21.5625H24.9463C24.8088 21.5625 24.6963 21.45 24.6963 21.3125V15.4873C24.6964 15.3499 24.8088 15.2373 24.9463 15.2373H28.6963Z" fill="#06C755"/>
</g>
<defs>
<clipPath id="clip0_152_158">
<rect width="40" height="40" fill="white"/>
</clipPath>
</defs>
</svg>
