<svg width="24" height="25" viewBox="0 0 24 25" fill="none" xmlns="http://www.w3.org/2000/svg">
<path d="M12 11C12.8284 11 13.5 10.3284 13.5 9.5C13.5 8.67157 12.8284 8 12 8C11.1716 8 10.5 8.67157 10.5 9.5C10.5 10.3284 11.1716 11 12 11Z" fill="#1CBCCF"/>
<path d="M12 2C7.86469 2 4.5 5.21797 4.5 9.17188C4.5 11.0548 5.35828 13.5589 7.05094 16.6147C8.41031 19.0681 9.98297 21.2867 10.8009 22.3906C10.9392 22.5792 11.1199 22.7326 11.3284 22.8384C11.537 22.9441 11.7676 22.9992 12.0014 22.9992C12.2352 22.9992 12.4658 22.9441 12.6744 22.8384C12.8829 22.7326 13.0637 22.5792 13.2019 22.3906C14.0184 21.2867 15.5925 19.0681 16.9519 16.6147C18.6417 13.5598 19.5 11.0558 19.5 9.17188C19.5 5.21797 16.1353 2 12 2ZM12 12.5C11.4067 12.5 10.8266 12.3241 10.3333 11.9944C9.83994 11.6648 9.45542 11.1962 9.22836 10.6481C9.0013 10.0999 8.94189 9.49667 9.05764 8.91473C9.1734 8.33279 9.45912 7.79824 9.87868 7.37868C10.2982 6.95912 10.8328 6.6734 11.4147 6.55764C11.9967 6.44189 12.5999 6.5013 13.1481 6.72836C13.6962 6.95542 14.1648 7.33994 14.4944 7.83329C14.8241 8.32664 15 8.90666 15 9.5C14.9991 10.2954 14.6828 11.0579 14.1204 11.6204C13.5579 12.1828 12.7954 12.4991 12 12.5Z" fill="#1CBCCF"/>
</svg>
