<svg width="211" height="56" viewBox="0 0 211 56" fill="none" xmlns="http://www.w3.org/2000/svg">
<path d="M81.02 32.294C78.976 32.294 77.128 31.944 75.476 31.244C73.852 30.544 72.564 29.536 71.612 28.22C70.66 26.904 70.17 25.35 70.142 23.558H76.442C76.526 24.762 76.946 25.714 77.702 26.414C78.486 27.114 79.55 27.464 80.894 27.464C82.266 27.464 83.344 27.142 84.128 26.498C84.912 25.826 85.304 24.958 85.304 23.894C85.304 23.026 85.038 22.312 84.506 21.752C83.974 21.192 83.302 20.758 82.49 20.45C81.706 20.114 80.614 19.75 79.214 19.358C77.31 18.798 75.756 18.252 74.552 17.72C73.376 17.16 72.354 16.334 71.486 15.242C70.646 14.122 70.226 12.638 70.226 10.79C70.226 9.054 70.66 7.542 71.528 6.254C72.396 4.966 73.614 3.986 75.182 3.314C76.75 2.614 78.542 2.264 80.558 2.264C83.582 2.264 86.032 3.006 87.908 4.49C89.812 5.946 90.862 7.99 91.058 10.622H84.59C84.534 9.614 84.1 8.788 83.288 8.144C82.504 7.472 81.454 7.136 80.138 7.136C78.99 7.136 78.066 7.43 77.366 8.018C76.694 8.606 76.358 9.46 76.358 10.58C76.358 11.364 76.61 12.022 77.114 12.554C77.646 13.058 78.29 13.478 79.046 13.814C79.83 14.122 80.922 14.486 82.322 14.906C84.226 15.466 85.78 16.026 86.984 16.586C88.188 17.146 89.224 17.986 90.092 19.106C90.96 20.226 91.394 21.696 91.394 23.516C91.394 25.084 90.988 26.54 90.176 27.884C89.364 29.228 88.174 30.306 86.606 31.118C85.038 31.902 83.176 32.294 81.02 32.294ZM107.244 32.378C105.004 32.378 102.988 31.888 101.196 30.908C99.4038 29.9 97.9898 28.486 96.9538 26.666C95.9458 24.846 95.4418 22.746 95.4418 20.366C95.4418 17.986 95.9598 15.886 96.9958 14.066C98.0598 12.246 99.5018 10.846 101.322 9.866C103.142 8.858 105.172 8.354 107.412 8.354C109.652 8.354 111.682 8.858 113.502 9.866C115.322 10.846 116.75 12.246 117.786 14.066C118.85 15.886 119.382 17.986 119.382 20.366C119.382 22.746 118.836 24.846 117.744 26.666C116.68 28.486 115.224 29.9 113.376 30.908C111.556 31.888 109.512 32.378 107.244 32.378ZM107.244 27.254C108.308 27.254 109.302 27.002 110.226 26.498C111.178 25.966 111.934 25.182 112.494 24.146C113.054 23.11 113.334 21.85 113.334 20.366C113.334 18.154 112.746 16.46 111.57 15.284C110.422 14.08 109.008 13.478 107.328 13.478C105.648 13.478 104.234 14.08 103.086 15.284C101.966 16.46 101.406 18.154 101.406 20.366C101.406 22.578 101.952 24.286 103.044 25.49C104.164 26.666 105.564 27.254 107.244 27.254ZM139.235 32L132.767 20.576H129.995V32H124.115V2.684H135.119C137.387 2.684 139.319 3.09 140.915 3.902C142.511 4.686 143.701 5.764 144.485 7.136C145.297 8.48 145.703 9.992 145.703 11.672C145.703 13.604 145.143 15.354 144.023 16.922C142.903 18.462 141.237 19.526 139.025 20.114L146.039 32H139.235ZM129.995 16.166H134.909C136.505 16.166 137.695 15.788 138.479 15.032C139.263 14.248 139.655 13.17 139.655 11.798C139.655 10.454 139.263 9.418 138.479 8.69C137.695 7.934 136.505 7.556 134.909 7.556H129.995V16.166ZM149.929 20.282C149.929 17.93 150.391 15.844 151.315 14.024C152.267 12.204 153.541 10.804 155.137 9.824C156.761 8.844 158.567 8.354 160.555 8.354C162.291 8.354 163.803 8.704 165.091 9.404C166.407 10.104 167.457 10.986 168.241 12.05V8.732H174.163V32H168.241V28.598C167.485 29.69 166.435 30.6 165.091 31.328C163.775 32.028 162.249 32.378 160.513 32.378C158.553 32.378 156.761 31.874 155.137 30.866C153.541 29.858 152.267 28.444 151.315 26.624C150.391 24.776 149.929 22.662 149.929 20.282ZM168.241 20.366C168.241 18.938 167.961 17.72 167.401 16.712C166.841 15.676 166.085 14.892 165.133 14.36C164.181 13.8 163.159 13.52 162.067 13.52C160.975 13.52 159.967 13.786 159.043 14.318C158.119 14.85 157.363 15.634 156.775 16.67C156.215 17.678 155.935 18.882 155.935 20.282C155.935 21.682 156.215 22.914 156.775 23.978C157.363 25.014 158.119 25.812 159.043 26.372C159.995 26.932 161.003 27.212 162.067 27.212C163.159 27.212 164.181 26.946 165.133 26.414C166.085 25.854 166.841 25.07 167.401 24.062C167.961 23.026 168.241 21.794 168.241 20.366Z" fill="#1CBCCF" fill-opacity="0.8"/>
<path d="M74.37 52L70.352 47.548V52H69.078V42.242H70.352V46.764L74.384 42.242H75.994L71.57 47.128L76.036 52H74.37ZM82.9189 46.33V47.408H77.3329V46.33H82.9189ZM90.3358 46.974C90.6905 47.03 91.0125 47.1747 91.3018 47.408C91.6005 47.6413 91.8338 47.9307 92.0018 48.276C92.1791 48.6213 92.2678 48.99 92.2678 49.382C92.2678 49.8767 92.1418 50.3247 91.8898 50.726C91.6378 51.118 91.2691 51.4307 90.7838 51.664C90.3078 51.888 89.7431 52 89.0898 52H85.4498V42.242H88.9498C89.6125 42.242 90.1771 42.354 90.6438 42.578C91.1105 42.7927 91.4605 43.0867 91.6938 43.46C91.9271 43.8333 92.0438 44.2533 92.0438 44.72C92.0438 45.2987 91.8851 45.7793 91.5678 46.162C91.2598 46.5353 90.8491 46.806 90.3358 46.974ZM86.7238 46.456H88.8658C89.4631 46.456 89.9251 46.316 90.2518 46.036C90.5785 45.756 90.7418 45.3687 90.7418 44.874C90.7418 44.3793 90.5785 43.992 90.2518 43.712C89.9251 43.432 89.4538 43.292 88.8378 43.292H86.7238V46.456ZM88.9778 50.95C89.6125 50.95 90.1071 50.8007 90.4618 50.502C90.8165 50.2033 90.9938 49.788 90.9938 49.256C90.9938 48.7147 90.8071 48.29 90.4338 47.982C90.0605 47.6647 89.5611 47.506 88.9358 47.506H86.7238V50.95H88.9778ZM101.176 47.87C101.176 48.1127 101.162 48.3693 101.134 48.64H95.0017C95.0484 49.396 95.3051 49.9887 95.7717 50.418C96.2477 50.838 96.8217 51.048 97.4937 51.048C98.0444 51.048 98.5017 50.922 98.8657 50.67C99.2391 50.4087 99.5004 50.0633 99.6497 49.634H101.022C100.816 50.3713 100.406 50.9733 99.7897 51.44C99.1737 51.8973 98.4084 52.126 97.4937 52.126C96.7657 52.126 96.1124 51.9627 95.5337 51.636C94.9644 51.3093 94.5164 50.8473 94.1897 50.25C93.8631 49.6433 93.6997 48.9433 93.6997 48.15C93.6997 47.3567 93.8584 46.6613 94.1757 46.064C94.4931 45.4667 94.9364 45.0093 95.5057 44.692C96.0844 44.3653 96.7471 44.202 97.4937 44.202C98.2217 44.202 98.8657 44.3607 99.4257 44.678C99.9857 44.9953 100.415 45.434 100.714 45.994C101.022 46.5447 101.176 47.17 101.176 47.87ZM99.8597 47.604C99.8597 47.1187 99.7524 46.7033 99.5377 46.358C99.3231 46.0033 99.0291 45.7373 98.6557 45.56C98.2917 45.3733 97.8857 45.28 97.4377 45.28C96.7937 45.28 96.2431 45.4853 95.7857 45.896C95.3377 46.3067 95.0811 46.876 95.0157 47.604H99.8597ZM102.521 48.136C102.521 47.352 102.68 46.666 102.997 46.078C103.315 45.4807 103.749 45.0187 104.299 44.692C104.859 44.3653 105.48 44.202 106.161 44.202C106.833 44.202 107.417 44.3467 107.911 44.636C108.406 44.9253 108.775 45.2893 109.017 45.728V44.328H110.305V52H109.017V50.572C108.765 51.02 108.387 51.3933 107.883 51.692C107.389 51.9813 106.81 52.126 106.147 52.126C105.466 52.126 104.85 51.958 104.299 51.622C103.749 51.286 103.315 50.8147 102.997 50.208C102.68 49.6013 102.521 48.9107 102.521 48.136ZM109.017 48.15C109.017 47.5713 108.901 47.0673 108.667 46.638C108.434 46.2087 108.117 45.882 107.715 45.658C107.323 45.4247 106.889 45.308 106.413 45.308C105.937 45.308 105.503 45.42 105.111 45.644C104.719 45.868 104.407 46.1947 104.173 46.624C103.94 47.0533 103.823 47.5573 103.823 48.136C103.823 48.724 103.94 49.2373 104.173 49.676C104.407 50.1053 104.719 50.4367 105.111 50.67C105.503 50.894 105.937 51.006 106.413 51.006C106.889 51.006 107.323 50.894 107.715 50.67C108.117 50.4367 108.434 50.1053 108.667 49.676C108.901 49.2373 109.017 48.7287 109.017 48.15ZM119.402 44.328V52H118.128V50.866C117.886 51.258 117.545 51.566 117.106 51.79C116.677 52.0047 116.201 52.112 115.678 52.112C115.081 52.112 114.544 51.9907 114.068 51.748C113.592 51.496 113.214 51.1227 112.934 50.628C112.664 50.1333 112.528 49.5313 112.528 48.822V44.328H113.788V48.654C113.788 49.41 113.98 49.9933 114.362 50.404C114.745 50.8053 115.268 51.006 115.93 51.006C116.612 51.006 117.148 50.796 117.54 50.376C117.932 49.956 118.128 49.3447 118.128 48.542V44.328H119.402ZM123.247 45.378V49.9C123.247 50.2733 123.327 50.5393 123.485 50.698C123.644 50.8473 123.919 50.922 124.311 50.922H125.249V52H124.101C123.392 52 122.86 51.8367 122.505 51.51C122.151 51.1833 121.973 50.6467 121.973 49.9V45.378H120.979V44.328H121.973V42.396H123.247V44.328H125.249V45.378H123.247ZM133.541 44.328L128.921 55.612H127.605L129.117 51.916L126.023 44.328H127.437L129.845 50.544L132.225 44.328H133.541ZM138.358 47.114C138.358 46.162 138.573 45.308 139.002 44.552C139.431 43.7867 140.015 43.1893 140.752 42.76C141.499 42.3307 142.325 42.116 143.23 42.116C144.294 42.116 145.223 42.3727 146.016 42.886C146.809 43.3993 147.388 44.1273 147.752 45.07H146.226C145.955 44.482 145.563 44.0293 145.05 43.712C144.546 43.3947 143.939 43.236 143.23 43.236C142.549 43.236 141.937 43.3947 141.396 43.712C140.855 44.0293 140.43 44.482 140.122 45.07C139.814 45.6487 139.66 46.33 139.66 47.114C139.66 47.8887 139.814 48.57 140.122 49.158C140.43 49.7367 140.855 50.1847 141.396 50.502C141.937 50.8193 142.549 50.978 143.23 50.978C143.939 50.978 144.546 50.824 145.05 50.516C145.563 50.1987 145.955 49.746 146.226 49.158H147.752C147.388 50.0913 146.809 50.8147 146.016 51.328C145.223 51.832 144.294 52.084 143.23 52.084C142.325 52.084 141.499 51.874 140.752 51.454C140.015 51.0247 139.431 50.432 139.002 49.676C138.573 48.92 138.358 48.066 138.358 47.114ZM151.063 41.64V52H149.789V41.64H151.063ZM154.032 43.082C153.789 43.082 153.584 42.998 153.416 42.83C153.248 42.662 153.164 42.4567 153.164 42.214C153.164 41.9713 153.248 41.766 153.416 41.598C153.584 41.43 153.789 41.346 154.032 41.346C154.265 41.346 154.461 41.43 154.62 41.598C154.788 41.766 154.872 41.9713 154.872 42.214C154.872 42.4567 154.788 42.662 154.62 42.83C154.461 42.998 154.265 43.082 154.032 43.082ZM154.648 44.328V52H153.374V44.328H154.648ZM160.697 44.188C161.631 44.188 162.387 44.4727 162.965 45.042C163.544 45.602 163.833 46.414 163.833 47.478V52H162.573V47.66C162.573 46.8947 162.382 46.3113 161.999 45.91C161.617 45.4993 161.094 45.294 160.431 45.294C159.759 45.294 159.223 45.504 158.821 45.924C158.429 46.344 158.233 46.9553 158.233 47.758V52H156.959V44.328H158.233V45.42C158.485 45.028 158.826 44.7247 159.255 44.51C159.694 44.2953 160.175 44.188 160.697 44.188ZM166.712 43.082C166.47 43.082 166.264 42.998 166.096 42.83C165.928 42.662 165.844 42.4567 165.844 42.214C165.844 41.9713 165.928 41.766 166.096 41.598C166.264 41.43 166.47 41.346 166.712 41.346C166.946 41.346 167.142 41.43 167.3 41.598C167.468 41.766 167.552 41.9713 167.552 42.214C167.552 42.4567 167.468 42.662 167.3 42.83C167.142 42.998 166.946 43.082 166.712 43.082ZM167.328 44.328V52H166.054V44.328H167.328ZM169.164 48.15C169.164 47.3567 169.322 46.666 169.64 46.078C169.957 45.4807 170.396 45.0187 170.956 44.692C171.525 44.3653 172.174 44.202 172.902 44.202C173.844 44.202 174.619 44.4307 175.226 44.888C175.842 45.3453 176.248 45.98 176.444 46.792H175.072C174.941 46.3253 174.684 45.9567 174.302 45.686C173.928 45.4153 173.462 45.28 172.902 45.28C172.174 45.28 171.586 45.532 171.138 46.036C170.69 46.5307 170.466 47.2353 170.466 48.15C170.466 49.074 170.69 49.788 171.138 50.292C171.586 50.796 172.174 51.048 172.902 51.048C173.462 51.048 173.928 50.9173 174.302 50.656C174.675 50.3947 174.932 50.0213 175.072 49.536H176.444C176.238 50.32 175.828 50.95 175.212 51.426C174.596 51.8927 173.826 52.126 172.902 52.126C172.174 52.126 171.525 51.9627 170.956 51.636C170.396 51.3093 169.957 50.8473 169.64 50.25C169.322 49.6527 169.164 48.9527 169.164 48.15Z" fill="#A9A9A9"/>
<circle opacity="0.98" cx="18" cy="18" r="18" fill="#FFCA28" fill-opacity="0.69"/>
<circle opacity="0.55" cx="40" cy="18" r="18" fill="#B3EBF2"/>
<ellipse opacity="0.29" cx="29.5" cy="37" rx="18.5" ry="18" fill="#01BED5"/>
</svg>
