<svg width="31" height="30" viewBox="0 0 31 30" fill="none" xmlns="http://www.w3.org/2000/svg">
<g opacity="0.6">
<path d="M28.5758 7.5C27.6133 7.9375 26.5758 8.225 25.5008 8.3625C26.6008 7.7 27.4508 6.65 27.8508 5.3875C26.8133 6.0125 25.6633 6.45 24.4508 6.7C23.4633 5.625 22.0758 5 20.5008 5C17.5633 5 15.1633 7.4 15.1633 10.3625C15.1633 10.7875 15.2133 11.2 15.3008 11.5875C10.8508 11.3625 6.88828 9.225 4.25078 5.9875C3.78828 6.775 3.52578 7.7 3.52578 8.675C3.52578 10.5375 4.46328 12.1875 5.91328 13.125C5.02578 13.125 4.20078 12.875 3.47578 12.5V12.5375C3.47578 15.1375 5.32578 17.3125 7.77578 17.8C6.98919 18.0153 6.1634 18.0452 5.36328 17.8875C5.70279 18.9531 6.3677 19.8855 7.26455 20.5537C8.1614 21.2218 9.24509 21.5921 10.3633 21.6125C8.46782 23.113 6.11828 23.9241 3.70078 23.9125C3.27578 23.9125 2.85078 23.8875 2.42578 23.8375C4.80078 25.3625 7.62578 26.25 10.6508 26.25C20.5008 26.25 25.9133 18.075 25.9133 10.9875C25.9133 10.75 25.9133 10.525 25.9008 10.2875C26.9508 9.5375 27.8508 8.5875 28.5758 7.5Z" fill="#90C6CD"/>
</g>
</svg>
