<svg width="31" height="30" viewBox="0 0 31 30" fill="none" xmlns="http://www.w3.org/2000/svg">
<g opacity="0.6">
<path d="M13 18.75L19.4875 15L13 11.25V18.75ZM27.45 8.9625C27.6125 9.55 27.725 10.3375 27.8 11.3375C27.8875 12.3375 27.925 13.2 27.925 13.95L28 15C28 17.7375 27.8 19.75 27.45 21.0375C27.1375 22.1625 26.4125 22.8875 25.2875 23.2C24.7 23.3625 23.625 23.475 21.975 23.55C20.35 23.6375 18.8625 23.675 17.4875 23.675L15.5 23.75C10.2625 23.75 7 23.55 5.7125 23.2C4.5875 22.8875 3.8625 22.1625 3.55 21.0375C3.3875 20.45 3.275 19.6625 3.2 18.6625C3.1125 17.6625 3.075 16.8 3.075 16.05L3 15C3 12.2625 3.2 10.25 3.55 8.9625C3.8625 7.8375 4.5875 7.1125 5.7125 6.8C6.3 6.6375 7.375 6.525 9.025 6.45C10.65 6.3625 12.1375 6.325 13.5125 6.325L15.5 6.25C20.7375 6.25 24 6.45 25.2875 6.8C26.4125 7.1125 27.1375 7.8375 27.45 8.9625Z" fill="#90C6CD"/>
</g>
</svg>
